<?xml version="1.0" standalone="no"?>
<!DOCTYPE svg PUBLIC "-//W3C//DTD SVG 20010904//EN"
 "http://www.w3.org/TR/2001/REC-SVG-20010904/DTD/svg10.dtd">
<svg version="1.0" xmlns="http://www.w3.org/2000/svg"
 width="16.000000pt" height="16.000000pt" viewBox="0 0 16.000000 16.000000"
 preserveAspectRatio="xMidYMid meet">
<metadata>
Created by potrace 1.11, written by Peter Selinger 2001-2013
</metadata>
<g transform="translate(0.000000,16.000000) scale(0.005333,-0.005333)"
fill="#000000" stroke="none">
<path d="M120 1710 l0 -90 110 0 110 0 2 -257 3 -258 145 0 145 0 3 113 3 112
154 0 155 0 0 -104 c0 -59 4 -108 10 -111 5 -3 139 -6 298 -5 310 1 355 6 436
54 53 31 92 75 113 128 l16 39 66 -3 66 -3 3 -108 3 -108 142 3 142 3 3 163
c1 89 6 162 10 162 4 -1 62 -75 130 -165 l122 -165 180 0 c99 0 180 3 180 6 0
3 -65 86 -145 184 -80 98 -145 182 -145 185 0 4 58 72 130 152 71 80 127 150
124 155 -3 4 -81 8 -174 8 l-168 0 -114 -154 c-62 -85 -116 -155 -120 -155 -5
-1 -8 66 -8 149 0 177 15 162 -165 158 l-120 -3 -5 -160 -5 -160 -59 0 -59 0
-12 55 c-31 150 -135 237 -311 260 -43 6 -187 10 -319 8 l-240 -3 -3 -162 -2
-163 -155 0 -155 0 0 75 0 75 109 0 c125 0 121 -3 121 90 0 99 37 90 -381 90
l-369 0 0 -90z m1331 -107 c40 -25 69 -70 69 -107 l0 -27 -132 3 -133 3 -3 79
-3 79 84 -5 c62 -3 92 -10 118 -25z m-573 -210 c-42 -2 -114 -2 -160 0 -46 1
-11 3 77 3 88 0 125 -2 83 -3z m575 0 c-34 -2 -93 -2 -130 0 -37 2 -9 3 62 3
72 0 102 -1 68 -3z m475 0 c-15 -2 -42 -2 -60 0 -18 2 -6 4 27 4 33 0 48 -2
33 -4z m-457 -77 c-20 -23 -100 -46 -163 -46 -58 0 -58 0 -58 30 l0 30 116 0
c100 0 115 -2 105 -14z"/>
</g>
</svg>
