<?xml version="1.0" encoding="utf-8"?>
<!-- Generator: Adobe Illustrator 21.0.0, SVG Export Plug-In . SVG Version: 6.00 Build 0)  -->
<svg version="1.1" id="Layer_1" xmlns="http://www.w3.org/2000/svg" xmlns:xlink="http://www.w3.org/1999/xlink" x="0px" y="0px"
	 viewBox="0 0 228 59" style="enable-background:new 0 0 228 59;" xml:space="preserve">
<style type="text/css">
	.st0{fill:#FFFFFF;}
	.st1{fill:#EE4737;}
	.st2{fill:#919396;}
</style>
<image style="display:none;overflow:visible;enable-background:new    ;" width="262" height="87" xlink:href="60987034.png"  transform="matrix(1 0 0 1 -11 -12)">
</image>
<g>
	<g>
		<rect x="207" y="44" class="st0" width="3" height="15"/>
		<path class="st0" d="M13,47L13,47c0-1.7,1.3-3,3-3h21v3H13z"/>
		<polygon class="st0" points="37,50 16,50 13,50 13,53 13,59 16,59 16,53 37,53 		"/>
		<path class="st0" d="M60.4,44H45.6C43,44,41,46.1,41,48.6v5.8c0,2.6,2.1,4.6,4.6,4.6h14.8c2.6,0,4.6-2.1,4.6-4.6v-5.8
			C65,46.1,62.9,44,60.4,44z M62,53c0,1.7-1.3,3-3,3H47c-1.7,0-3-1.3-3-3v-3c0-1.7,1.3-3,3-3h12c1.7,0,3,1.3,3,3V53z"/>
		<path class="st0" d="M69,44v3h20.4c0.3,0,0.6,0.3,0.6,0.6v1.8c0,0.3-0.3,0.6-0.6,0.6H85h-4h-9h-3v9h3v-6h11.7l5.3,6h4l-5.3-6H90
			c1.7,0,3-1.3,3-3l0,0v-3l0,0c0-1.7-1.3-3-3-3C90,44,69,44,69,44z"/>
		<path class="st0" d="M179,44v3h20.4c0.3,0,0.6,0.3,0.6,0.6v1.8c0,0.3-0.3,0.6-0.6,0.6H195h-4h-9h-3v9h3v-6h11.7l5.3,6h4l-5.3-6
			h2.3c1.7,0,3-1.3,3-3l0,0v-3l0,0c0-1.7-1.3-3-3-3C200,44,179,44,179,44z"/>
		<path class="st0" d="M171.4,44h-14.8c-2.6,0-4.6,2.1-4.6,4.6v5.8c0,2.6,2.1,4.6,4.6,4.6h14.8c2.6,0,4.6-2.1,4.6-4.6v-5.8
			C176,46.1,173.9,44,171.4,44z M173,53c0,1.7-1.3,3-3,3h-12c-1.7,0-3-1.3-3-3v-3c0-1.7,1.3-3,3-3h12c1.7,0,3,1.3,3,3V53z"/>
		<polygon class="st0" points="145,44 145,55.5 137.8,44.8 137.2,44 134.8,44 134.2,44.8 127,55.5 127,44 124,44 124,59 124.6,59 
			125,59 127,59 128.2,59 129.6,57 136,47.5 142.4,57 143.8,59 145,59 147,59 147.4,59 148,59 148,44 		"/>
		<g>
			<rect x="96" y="50" class="st0" width="3" height="9"/>
			<polygon class="st0" points="119.4,44 119,44 117,44 115.8,44 114.4,46 108.5,54.7 102.6,46 101.2,44 100.2,44 99,44 97,44 
				96.6,44 96,44 96,47 97,47 99,47 99.7,47 100,47.5 107.2,58.2 107.8,59 109.2,59 109.8,58.2 117,47.5 117,59 120,59 120,44 			
				"/>
		</g>
		<polygon class="st0" points="221.6,53 220,51.5 221.6,50 227.8,44 223.5,44 217.8,49.4 217.2,50 214.1,50 213,50 213,53 214.1,53 
			217.2,53 217.8,53.6 223.5,59 227.8,59 		"/>
	</g>
	<g>
		<polygon class="st0" points="43,0 30,0 13,0 0,0 0,9.5 13,9.5 13,40 30,40 30,9.5 43,9.5 		"/>
		<path class="st1" d="M110,19h-9v-1.4C101,7.9,93.1,0,83.4,0H66H49v19H13v3h36v18h17h17.4c9.7,0,17.6-7.9,17.6-17.6V22h9V19z M66,9
			h7.5c5.6,0,10.2,4.4,10.5,10H66V9z M73.5,31H66v-9h17.9C83.2,27.1,78.8,31,73.5,31z"/>
		<polygon class="st2" points="146,18 162,0 141,0 127,19 127,0 110,0 110,24 30,24 30,27 110,27 110,40 127,40 127,20 143,40 
			164,40 		"/>
	</g>
</g>
</svg>
